<?xml version="1.0" encoding="utf-8"?>
<!-- Generator: Adobe Illustrator 19.0.0, SVG Export Plug-In . SVG Version: 6.00 Build 0)  -->
<svg version="1.1" id="Layer_1" xmlns="http://www.w3.org/2000/svg" xmlns:xlink="http://www.w3.org/1999/xlink" x="0px" y="0px"
	 viewBox="-467 269 24 24" style="enable-background:new -467 269 24 24;" xml:space="preserve">
<path d="M-455,269c-6.6,0-12,5.4-12,12c0,3.2,1.2,6.2,3.5,8.4v0c2.3,2.3,5.3,3.6,8.5,3.6c3.2,0,6.3-1.3,8.5-3.6
	c2.2-2.3,3.5-5.3,3.5-8.4C-443,274.4-448.4,269-455,269z M-446.9,288.4c-1.1-0.6-2.6-1.2-4.3-1.8l-1.3-0.5v-1.8
	c0.5-0.3,1.4-1.1,1.5-2.9c0.4-0.2,0.6-0.7,0.6-1.4c0-0.6-0.2-1-0.5-1.3c0.2-0.8,0.7-2.1,0.4-3.3c-0.3-1.4-2.2-1.9-3.7-1.9
	c-1.3,0-3,0.4-3.6,1.5c-0.7,0-1.1,0.3-1.3,0.5c-0.6,0.8-0.2,2.4,0,3.2c-0.3,0.2-0.5,0.7-0.5,1.3c0,0.6,0.2,1.1,0.6,1.4
	c0.1,1.8,1,2.6,1.5,2.9v1.8l-1.2,0.4c-1.6,0.6-3.3,1.2-4.4,1.9c-1.9-2-2.9-4.7-2.9-7.4c0-6.1,4.9-11,11-11s11,4.9,11,11
	C-444,283.8-445,286.4-446.9,288.4z"/>
</svg>
