<?xml version="1.0" encoding="utf-8"?>
<!-- Generator: Adobe Illustrator 19.0.0, SVG Export Plug-In . SVG Version: 6.00 Build 0)  -->
<svg version="1.1" id="Layer_1" xmlns="http://www.w3.org/2000/svg" xmlns:xlink="http://www.w3.org/1999/xlink" x="0px" y="0px"
	 viewBox="0 0 960 560" style="enable-background:new 0 0 960 560;" xml:space="preserve">
<style type="text/css">
	.st0{fill:#00A29B;stroke:#00B9AC;stroke-miterlimit:10;}
	.st1{fill:none;stroke:#00B9AC;stroke-width:3;stroke-miterlimit:10;}
</style>
<path class="st0" d="M190,174.1c0.1,4.7,4.9,8,14.3,9.8h0.1c5.4,1,9.7,2.5,12.6,4.5c3.6,2.4,5.5,5.5,5.5,9.4c0,3.9-1.8,7.2-5.5,9.8
	c-3.7,2.7-8,4-12.9,4c-6.2,0-12.4-2.4-18.3-7.2c-0.8-0.7-0.8-1.4-0.2-2.2c0.3-0.3,0.6-0.5,1.1-0.6c0.4,0,0.8,0.1,1.1,0.4
	c5.3,4.3,10.8,6.4,16.3,6.4c4.4,0,8-1.1,10.9-3.3c2.8-2,4.3-4.5,4.3-7.4c0-5.3-5.2-8.9-15.5-10.9h-0.1c-11.2-2.1-16.8-6.4-16.8-12.9
	c0-3.7,1.7-6.8,5.1-9.2c3.4-2.5,7.4-3.7,12.1-3.7c2,0,4.1,0.3,6.1,1c2.1,0.7,3.7,1.3,4.8,2c1.1,0.6,2.6,1.6,4.4,2.7
	c0.9,0.6,1,1.3,0.4,2.2c-0.5,0.9-1.2,1-2.1,0.4c-1.7-1.1-3.1-1.9-4.2-2.6c-1.1-0.6-2.5-1.2-4.3-1.8c-1.8-0.6-3.5-0.9-5.2-0.9
	c-4,0-7.4,1-10.2,3C191.3,169.2,190,171.5,190,174.1z"/>
<path class="st0" d="M265,173.7c0.6,0.6,1,1.5,1,2.5V207c0,0.9-0.3,1.8-1,2.4c-0.6,0.7-1.5,1-2.4,1c-1,0-1.8-0.3-2.4-1
	c-0.6-0.6-0.9-1.5-0.9-2.4v-1.8c-1.2,1.7-2.9,3.1-5,4.2c-2.1,1.2-4.4,1.7-6.9,1.7c-3.2,0-6.1-0.8-8.8-2.5c-2.6-1.7-4.7-4-6.2-6.9
	c-1.5-3-2.2-6.3-2.2-10c0-3.7,0.7-7,2.2-10c1.5-3,3.5-5.3,6.1-6.9c2.6-1.7,5.5-2.5,8.6-2.5c2.5,0,4.8,0.5,7,1.6c2.2,1,3.9,2.4,5.1,4
	v-1.7c0-1,0.3-1.8,0.9-2.5c0.6-0.7,1.4-1,2.4-1C263.5,172.7,264.3,173,265,173.7z M254,203.2c1.7-1.1,3.1-2.7,4-4.7
	c1-2,1.5-4.2,1.5-6.7c0-2.5-0.5-4.7-1.5-6.7c-1-2-2.3-3.6-4-4.7c-1.7-1.2-3.7-1.7-5.9-1.7c-2.2,0-4.2,0.6-5.9,1.7
	c-1.7,1.1-3.1,2.7-4,4.7c-1,2-1.5,4.2-1.5,6.7c0,2.5,0.5,4.8,1.5,6.7c1,2,2.3,3.6,4,4.7c1.7,1.1,3.7,1.7,5.9,1.7
	C250.3,204.9,252.3,204.3,254,203.2z"/>
<path class="st0" d="M303.3,173.7c2.6,1.6,4.7,3.9,6.1,6.9c1.5,2.9,2.2,6.2,2.2,9.9s-0.7,7-2.2,9.9c-1.5,2.9-3.5,5.2-6.1,6.9
	c-2.6,1.7-5.5,2.5-8.6,2.5c-2.5,0-4.8-0.5-6.9-1.6c-2.1-1.1-3.9-2.4-5.2-4v15.8c0,0.9-0.3,1.8-1,2.4c-0.6,0.7-1.5,1-2.4,1
	c-0.9,0-1.7-0.3-2.4-1c-0.6-0.6-1-1.5-1-2.4v-44.7c0-1,0.3-1.8,0.9-2.5c0.6-0.7,1.4-1,2.4-1s1.8,0.3,2.4,1c0.6,0.7,1,1.5,1,2.5v2.1
	c1.1-1.7,2.8-3.1,5-4.3c2.2-1.2,4.5-1.8,7-1.8C297.8,171.2,300.7,172.1,303.3,173.7z M299.7,201.8c1.8-1.1,3.1-2.7,4.1-4.7
	c1-2,1.5-4.2,1.5-6.6c0-2.5-0.5-4.7-1.5-6.6c-1-2-2.3-3.5-4.1-4.7c-1.8-1.1-3.7-1.7-5.9-1.7c-2.2,0-4.2,0.6-6,1.7
	c-1.8,1.1-3.1,2.7-4.1,4.7c-1,2-1.5,4.2-1.5,6.7c0,2.5,0.5,4.7,1.5,6.7c1,2,2.3,3.5,4.1,4.7c1.8,1.1,3.7,1.7,6,1.7
	C296,203.5,298,202.9,299.7,201.8z"/>
<path class="st0" d="M345.8,174.7c2.6,1.6,4.7,3.9,6.1,6.9c1.5,2.9,2.2,6.2,2.2,9.9s-0.7,7-2.2,9.9c-1.5,2.9-3.5,5.2-6.1,6.9
	c-2.6,1.7-5.5,2.5-8.6,2.5c-2.5,0-4.8-0.5-6.9-1.6c-2.1-1.1-3.9-2.4-5.2-4v15.8c0,0.9-0.3,1.8-1,2.4c-0.6,0.7-1.5,1-2.4,1
	c-0.9,0-1.7-0.3-2.4-1c-0.6-0.6-1-1.5-1-2.4v-44.7c0-1,0.3-1.8,0.9-2.5c0.6-0.7,1.4-1,2.4-1s1.8,0.3,2.4,1c0.6,0.7,1,1.5,1,2.5v2.1
	c1.1-1.7,2.8-3.1,5-4.3c2.2-1.2,4.5-1.8,7-1.8C340.3,172.2,343.2,173.1,345.8,174.7z M342.1,202.8c1.8-1.1,3.1-2.7,4.1-4.7
	c1-2,1.5-4.2,1.5-6.6c0-2.5-0.5-4.7-1.5-6.6c-1-2-2.3-3.5-4.1-4.7c-1.8-1.1-3.7-1.7-5.9-1.7c-2.2,0-4.2,0.6-6,1.7
	c-1.8,1.1-3.1,2.7-4.1,4.7c-1,2-1.5,4.2-1.5,6.7c0,2.5,0.5,4.7,1.5,6.7c1,2,2.3,3.5,4.1,4.7c1.8,1.1,3.7,1.7,6,1.7
	C338.4,204.5,340.4,203.9,342.1,202.8z"/>
<path class="st0" d="M414.4,207.6v-31.3c0-0.5,0.2-0.9,0.5-1.2c0.3-0.3,0.7-0.5,1.2-0.5c0.5,0,0.9,0.2,1.2,0.5
	c0.3,0.3,0.5,0.7,0.5,1.2v7.7c0.2-0.4,0.4-0.7,0.5-0.9c3.6-5.7,8.3-8.5,13.9-8.5c0.5,0,0.9,0.2,1.2,0.5c0.3,0.3,0.5,0.7,0.5,1.2
	c0,0.5-0.2,0.9-0.5,1.2c-0.3,0.3-0.7,0.5-1.2,0.5c-3.8,0-7.1,1.9-10.1,5.7c-1.7,2.3-3.1,5-4.2,8.1c-0.1,0.2-0.1,0.4-0.1,0.6v15.3
	c0,0.5-0.2,0.9-0.5,1.2c-0.3,0.3-0.7,0.5-1.2,0.5c-0.5,0-0.9-0.2-1.2-0.5C414.5,208.5,414.4,208.1,414.4,207.6z"/>
<path class="st0" d="M453.8,176.3c0.4,0,0.8,0.2,1.2,0.5s0.5,0.7,0.5,1.2c0,0.4-0.2,0.8-0.5,1.2s-0.7,0.5-1.2,0.5h-4.5v25.3
	c0,0.8,0.3,1.4,0.9,1.8c0.6,0.5,1.1,0.7,1.6,0.7c0.5,0,0.9,0.2,1.3,0.6c0.4,0.4,0.6,0.8,0.6,1.2c0,0.4-0.2,0.8-0.6,1.2
	c-0.4,0.4-0.8,0.5-1.2,0.5c-1.8,0-3.2-0.6-4.4-1.7c-1.2-1.1-1.7-2.6-1.7-4.3v-25.3h-4.3c-0.8,0-1.2-0.1-1.4-0.4
	c-0.2-0.3-0.3-0.7-0.3-1.1c0-0.5,0-0.8,0.1-1c0.1-0.6,0.7-0.9,1.6-0.9h4.3v-12.9c0-0.4,0.2-0.8,0.5-1.2s0.8-0.5,1.2-0.5
	c0.4,0,0.9,0.2,1.2,0.5c0.4,0.4,0.6,0.7,0.6,1.2v12.9H453.8z"/>
<g>
	<path class="st1" d="M383.4,212.6c7.2-6.3,14.5-12.6,21.7-18.9c1.2-1.1,2.4-2.3,3.2-3.8c4.1-7.4,1-16.1-5.3-19.2
		c-7.1-3.5-13.3,0.7-17.2,9.8"/>
	<path class="st1" d="M383.1,213.6c-6.6-6.3-13.2-12.5-19.8-18.8c-1.4-1.3-2.6-2.9-3.4-4.7c-3.2-7.2-0.3-15.4,5.3-18.4
		c6.5-3.5,17-0.2,20.5,8.9"/>
</g>
<path class="st0" d="M348.3,125.4"/>
</svg>
