<?xml version="1.0" encoding="utf-8"?>
<!-- Generator: Adobe Illustrator 19.0.0, SVG Export Plug-In . SVG Version: 6.00 Build 0)  -->
<svg version="1.1" id="Layer_1" xmlns="http://www.w3.org/2000/svg" xmlns:xlink="http://www.w3.org/1999/xlink" x="0px" y="0px"
	 viewBox="-467 269 24 24" style="enable-background:new -467 269 24 24;" xml:space="preserve">
<title>wqewqeqwewqeqeqwe</title>
<path d="M-460.8,289.2c0.2,0.2-2.5-0.9-2.3-0.7c0,0,3.8-1.3,5.2-1.9l0.2-0.1c-1.6,0.3-3.3-0.1-4.6-1.1c0,0,2-0.8,1.6-5.8
	c-0.4-5,2.2-6.1,3.6-6.2c0.6-0.1,1.3,0.1,1.7,0.6c0.5-0.5,1.1-0.7,1.7-0.6c1.4,0.1,4,1.3,3.6,6.2c-0.4,5,1.6,5.8,1.6,5.8
	c-1.3,1.1-3.1,1.5-4.8,1.1c0.1,0.1,0.2,0.1,0.2,0.2c1.4,0.6,2.8,1,4.3,1.4l1.7,0.5l-1.1,0.5l-0.8,0.2 M-455.3,292.3L-455.3,292.3"/>
<path d="M-455,269c-6.6,0-12,5.4-12,12c0,3.2,1.2,6.2,3.5,8.4l0,0c4.7,4.7,12.3,4.8,17,0.1c4.7-4.7,4.8-12.3,0.1-17
	C-448.7,270.3-451.8,269-455,269z M-463.1,288.4c-4.1-4.5-3.8-11.4,0.6-15.5c4.5-4.1,11.4-3.8,15.5,0.6c1.9,2,2.9,4.7,2.9,7.5
	c0,2.8-1,5.4-2.9,7.4"/>
</svg>
